<mxfile host="app.diagrams.net" modified="2021-12-18T07:10:51.957Z" agent="5.0 (Windows NT 10.0; Win64; x64) AppleWebKit/537.36 (KHTML, like Gecko) Chrome/96.0.4664.55 Safari/537.36 Edg/96.0.1054.43" etag="JYI3PdPFwX_gUF-V1x3u" version="15.9.4" type="github">
  <diagram id="tYzRD9jrzd76ypjd2pRY" name="Page-1">
    <mxGraphModel dx="782" dy="434" grid="1" gridSize="10" guides="1" tooltips="1" connect="1" arrows="1" fold="1" page="1" pageScale="1" pageWidth="850" pageHeight="1100" math="0" shadow="0">
      <root>
        <mxCell id="0" />
        <mxCell id="1" parent="0" />
        <mxCell id="NsVRQRD93HS3144x8ldY-6" value="8" style="rounded=0;whiteSpace=wrap;html=1;fillColor=#dae8fc;strokeColor=#6c8ebf;" vertex="1" parent="1">
          <mxGeometry x="279" y="338" width="40" height="40" as="geometry" />
        </mxCell>
        <mxCell id="NsVRQRD93HS3144x8ldY-7" value="3" style="rounded=0;whiteSpace=wrap;html=1;fillColor=#dae8fc;strokeColor=#6c8ebf;" vertex="1" parent="1">
          <mxGeometry x="319" y="338" width="40" height="40" as="geometry" />
        </mxCell>
        <mxCell id="NsVRQRD93HS3144x8ldY-9" value="6" style="rounded=0;whiteSpace=wrap;html=1;fillColor=#dae8fc;strokeColor=#6c8ebf;" vertex="1" parent="1">
          <mxGeometry x="359" y="338" width="40" height="40" as="geometry" />
        </mxCell>
        <mxCell id="NsVRQRD93HS3144x8ldY-10" value="1" style="rounded=0;whiteSpace=wrap;html=1;fillColor=#dae8fc;strokeColor=#6c8ebf;" vertex="1" parent="1">
          <mxGeometry x="399" y="338" width="40" height="40" as="geometry" />
        </mxCell>
        <mxCell id="NsVRQRD93HS3144x8ldY-11" value="8" style="rounded=0;whiteSpace=wrap;html=1;fillColor=#dae8fc;strokeColor=#6c8ebf;" vertex="1" parent="1">
          <mxGeometry x="220" y="409" width="40" height="40" as="geometry" />
        </mxCell>
        <mxCell id="NsVRQRD93HS3144x8ldY-12" value="3" style="rounded=0;whiteSpace=wrap;html=1;fillColor=#dae8fc;strokeColor=#6c8ebf;" vertex="1" parent="1">
          <mxGeometry x="260" y="409" width="40" height="40" as="geometry" />
        </mxCell>
        <mxCell id="NsVRQRD93HS3144x8ldY-13" value="6" style="rounded=0;whiteSpace=wrap;html=1;fillColor=#dae8fc;strokeColor=#6c8ebf;" vertex="1" parent="1">
          <mxGeometry x="300" y="409" width="40" height="40" as="geometry" />
        </mxCell>
        <mxCell id="NsVRQRD93HS3144x8ldY-15" value="1" style="rounded=0;whiteSpace=wrap;html=1;fillColor=#dae8fc;strokeColor=#6c8ebf;" vertex="1" parent="1">
          <mxGeometry x="478" y="413" width="40" height="40" as="geometry" />
        </mxCell>
        <mxCell id="NsVRQRD93HS3144x8ldY-16" value="4" style="rounded=0;whiteSpace=wrap;html=1;fillColor=#dae8fc;strokeColor=#6c8ebf;" vertex="1" parent="1">
          <mxGeometry x="518" y="413" width="40" height="40" as="geometry" />
        </mxCell>
        <mxCell id="NsVRQRD93HS3144x8ldY-17" value="2" style="rounded=0;whiteSpace=wrap;html=1;fillColor=#dae8fc;strokeColor=#6c8ebf;" vertex="1" parent="1">
          <mxGeometry x="558" y="413" width="40" height="40" as="geometry" />
        </mxCell>
        <mxCell id="NsVRQRD93HS3144x8ldY-19" value="2" style="rounded=0;whiteSpace=wrap;html=1;fillColor=#dae8fc;strokeColor=#6c8ebf;" vertex="1" parent="1">
          <mxGeometry x="599" y="481" width="40" height="40" as="geometry" />
        </mxCell>
        <mxCell id="NsVRQRD93HS3144x8ldY-20" value="8" style="rounded=0;whiteSpace=wrap;html=1;fillColor=#dae8fc;strokeColor=#6c8ebf;" vertex="1" parent="1">
          <mxGeometry x="138" y="547" width="40" height="40" as="geometry" />
        </mxCell>
        <mxCell id="NsVRQRD93HS3144x8ldY-21" value="3&lt;span style=&quot;color: rgba(0 , 0 , 0 , 0) ; font-family: monospace ; font-size: 0px&quot;&gt;%3CmxGraphModel%3E%3Croot%3E%3CmxCell%20id%3D%220%22%2F%3E%3CmxCell%20id%3D%221%22%20parent%3D%220%22%2F%3E%3CmxCell%20id%3D%222%22%20value%3D%22%22%20style%3D%22rounded%3D0%3BwhiteSpace%3Dwrap%3Bhtml%3D1%3BfillColor%3D%23dae8fc%3BstrokeColor%3D%236c8ebf%3B%22%20vertex%3D%221%22%20parent%3D%221%22%3E%3CmxGeometry%20x%3D%22530%22%20y%3D%22450%22%20width%3D%2240%22%20height%3D%2240%22%20as%3D%22geometry%22%2F%3E%3C%2FmxCell%3E%3CmxCell%20id%3D%223%22%20value%3D%22%22%20style%3D%22rounded%3D0%3BwhiteSpace%3Dwrap%3Bhtml%3D1%3BfillColor%3D%23dae8fc%3BstrokeColor%3D%236c8ebf%3B%22%20vertex%3D%221%22%20parent%3D%221%22%3E%3CmxGeometry%20x%3D%22570%22%20y%3D%22450%22%20width%3D%2240%22%20height%3D%2240%22%20as%3D%22geometry%22%2F%3E%3C%2FmxCell%3E%3C%2Froot%3E%3C%2FmxGraphModel%3E&lt;/span&gt;" style="rounded=0;whiteSpace=wrap;html=1;fillColor=#dae8fc;strokeColor=#6c8ebf;" vertex="1" parent="1">
          <mxGeometry x="238" y="544" width="40" height="40" as="geometry" />
        </mxCell>
        <mxCell id="NsVRQRD93HS3144x8ldY-22" value="4" style="rounded=0;whiteSpace=wrap;html=1;fillColor=#dae8fc;strokeColor=#6c8ebf;" vertex="1" parent="1">
          <mxGeometry x="517" y="548" width="40" height="40" as="geometry" />
        </mxCell>
        <mxCell id="NsVRQRD93HS3144x8ldY-23" value="4" style="rounded=0;whiteSpace=wrap;html=1;fillColor=#dae8fc;strokeColor=#6c8ebf;" vertex="1" parent="1">
          <mxGeometry x="439" y="338" width="40" height="40" as="geometry" />
        </mxCell>
        <mxCell id="NsVRQRD93HS3144x8ldY-24" value="2" style="rounded=0;whiteSpace=wrap;html=1;fillColor=#dae8fc;strokeColor=#6c8ebf;" vertex="1" parent="1">
          <mxGeometry x="479" y="338" width="40" height="40" as="geometry" />
        </mxCell>
        <mxCell id="NsVRQRD93HS3144x8ldY-29" value="8" style="rounded=0;whiteSpace=wrap;html=1;fillColor=#dae8fc;strokeColor=#6c8ebf;" vertex="1" parent="1">
          <mxGeometry x="165" y="479" width="40" height="40" as="geometry" />
        </mxCell>
        <mxCell id="NsVRQRD93HS3144x8ldY-30" value="3" style="rounded=0;whiteSpace=wrap;html=1;fillColor=#dae8fc;strokeColor=#6c8ebf;" vertex="1" parent="1">
          <mxGeometry x="205" y="479" width="40" height="40" as="geometry" />
        </mxCell>
        <mxCell id="NsVRQRD93HS3144x8ldY-31" value="1" style="rounded=0;whiteSpace=wrap;html=1;fillColor=#dae8fc;strokeColor=#6c8ebf;" vertex="1" parent="1">
          <mxGeometry x="439" y="480" width="40" height="40" as="geometry" />
        </mxCell>
        <mxCell id="NsVRQRD93HS3144x8ldY-32" value="4" style="rounded=0;whiteSpace=wrap;html=1;fillColor=#dae8fc;strokeColor=#6c8ebf;" vertex="1" parent="1">
          <mxGeometry x="479" y="480" width="40" height="40" as="geometry" />
        </mxCell>
        <mxCell id="NsVRQRD93HS3144x8ldY-33" value="6" style="rounded=0;whiteSpace=wrap;html=1;fillColor=#dae8fc;strokeColor=#6c8ebf;" vertex="1" parent="1">
          <mxGeometry x="335" y="479" width="40" height="40" as="geometry" />
        </mxCell>
        <mxCell id="NsVRQRD93HS3144x8ldY-34" value="1" style="rounded=0;whiteSpace=wrap;html=1;fillColor=#dae8fc;strokeColor=#6c8ebf;" vertex="1" parent="1">
          <mxGeometry x="413" y="551" width="40" height="40" as="geometry" />
        </mxCell>
        <mxCell id="NsVRQRD93HS3144x8ldY-35" value="" style="endArrow=classic;html=1;rounded=0;exitX=0.25;exitY=1;exitDx=0;exitDy=0;entryX=0.5;entryY=0;entryDx=0;entryDy=0;" edge="1" parent="1" source="NsVRQRD93HS3144x8ldY-9" target="NsVRQRD93HS3144x8ldY-12">
          <mxGeometry width="50" height="50" relative="1" as="geometry">
            <mxPoint x="380" y="540" as="sourcePoint" />
            <mxPoint x="430" y="490" as="targetPoint" />
          </mxGeometry>
        </mxCell>
        <mxCell id="NsVRQRD93HS3144x8ldY-37" value="" style="endArrow=classic;html=1;rounded=0;entryX=0.25;entryY=0;entryDx=0;entryDy=0;exitX=0.5;exitY=1;exitDx=0;exitDy=0;" edge="1" parent="1" source="NsVRQRD93HS3144x8ldY-10" target="NsVRQRD93HS3144x8ldY-16">
          <mxGeometry width="50" height="50" relative="1" as="geometry">
            <mxPoint x="390" y="380" as="sourcePoint" />
            <mxPoint x="311" y="410" as="targetPoint" />
          </mxGeometry>
        </mxCell>
        <mxCell id="NsVRQRD93HS3144x8ldY-38" value="" style="endArrow=classic;html=1;rounded=0;exitX=0.5;exitY=1;exitDx=0;exitDy=0;" edge="1" parent="1" source="NsVRQRD93HS3144x8ldY-12">
          <mxGeometry width="50" height="50" relative="1" as="geometry">
            <mxPoint x="359" y="549" as="sourcePoint" />
            <mxPoint x="239" y="479" as="targetPoint" />
          </mxGeometry>
        </mxCell>
        <mxCell id="NsVRQRD93HS3144x8ldY-39" value="" style="endArrow=classic;html=1;rounded=0;exitX=0.5;exitY=1;exitDx=0;exitDy=0;entryX=0.25;entryY=0;entryDx=0;entryDy=0;" edge="1" parent="1" source="NsVRQRD93HS3144x8ldY-12" target="NsVRQRD93HS3144x8ldY-33">
          <mxGeometry width="50" height="50" relative="1" as="geometry">
            <mxPoint x="290" y="459" as="sourcePoint" />
            <mxPoint x="268" y="485" as="targetPoint" />
          </mxGeometry>
        </mxCell>
        <mxCell id="NsVRQRD93HS3144x8ldY-41" value="" style="endArrow=classic;html=1;rounded=0;exitX=0.5;exitY=1;exitDx=0;exitDy=0;entryX=1;entryY=0;entryDx=0;entryDy=0;" edge="1" parent="1" source="NsVRQRD93HS3144x8ldY-16" target="NsVRQRD93HS3144x8ldY-31">
          <mxGeometry width="50" height="50" relative="1" as="geometry">
            <mxPoint x="418" y="553" as="sourcePoint" />
            <mxPoint x="518" y="473" as="targetPoint" />
          </mxGeometry>
        </mxCell>
        <mxCell id="NsVRQRD93HS3144x8ldY-42" value="" style="endArrow=classic;html=1;rounded=0;exitX=0.5;exitY=1;exitDx=0;exitDy=0;entryX=0.25;entryY=0;entryDx=0;entryDy=0;" edge="1" parent="1" source="NsVRQRD93HS3144x8ldY-16" target="NsVRQRD93HS3144x8ldY-19">
          <mxGeometry width="50" height="50" relative="1" as="geometry">
            <mxPoint x="418" y="553" as="sourcePoint" />
            <mxPoint x="468" y="503" as="targetPoint" />
          </mxGeometry>
        </mxCell>
        <mxCell id="NsVRQRD93HS3144x8ldY-43" value="" style="endArrow=classic;html=1;rounded=0;exitX=0;exitY=1;exitDx=0;exitDy=0;entryX=0.5;entryY=0;entryDx=0;entryDy=0;" edge="1" parent="1" source="NsVRQRD93HS3144x8ldY-30" target="NsVRQRD93HS3144x8ldY-20">
          <mxGeometry width="50" height="50" relative="1" as="geometry">
            <mxPoint x="359" y="549" as="sourcePoint" />
            <mxPoint x="409" y="499" as="targetPoint" />
          </mxGeometry>
        </mxCell>
        <mxCell id="NsVRQRD93HS3144x8ldY-44" value="" style="endArrow=classic;html=1;rounded=0;exitX=1;exitY=1;exitDx=0;exitDy=0;entryX=0.5;entryY=0;entryDx=0;entryDy=0;" edge="1" parent="1" source="NsVRQRD93HS3144x8ldY-29" target="NsVRQRD93HS3144x8ldY-21">
          <mxGeometry width="50" height="50" relative="1" as="geometry">
            <mxPoint x="359" y="549" as="sourcePoint" />
            <mxPoint x="409" y="499" as="targetPoint" />
          </mxGeometry>
        </mxCell>
        <mxCell id="NsVRQRD93HS3144x8ldY-45" value="" style="endArrow=classic;html=1;rounded=0;exitX=0;exitY=1;exitDx=0;exitDy=0;entryX=0.5;entryY=0;entryDx=0;entryDy=0;" edge="1" parent="1" source="NsVRQRD93HS3144x8ldY-32" target="NsVRQRD93HS3144x8ldY-34">
          <mxGeometry width="50" height="50" relative="1" as="geometry">
            <mxPoint x="418" y="553" as="sourcePoint" />
            <mxPoint x="468" y="503" as="targetPoint" />
          </mxGeometry>
        </mxCell>
        <mxCell id="NsVRQRD93HS3144x8ldY-46" value="" style="endArrow=classic;html=1;rounded=0;exitX=1;exitY=1;exitDx=0;exitDy=0;entryX=0.25;entryY=0;entryDx=0;entryDy=0;" edge="1" parent="1" source="NsVRQRD93HS3144x8ldY-31" target="NsVRQRD93HS3144x8ldY-22">
          <mxGeometry width="50" height="50" relative="1" as="geometry">
            <mxPoint x="369" y="483" as="sourcePoint" />
            <mxPoint x="347" y="509" as="targetPoint" />
          </mxGeometry>
        </mxCell>
        <mxCell id="NsVRQRD93HS3144x8ldY-47" value="3" style="rounded=0;whiteSpace=wrap;html=1;fillColor=#dae8fc;strokeColor=#6c8ebf;" vertex="1" parent="1">
          <mxGeometry x="171" y="621" width="40" height="40" as="geometry" />
        </mxCell>
        <mxCell id="NsVRQRD93HS3144x8ldY-48" value="8" style="rounded=0;whiteSpace=wrap;html=1;fillColor=#dae8fc;strokeColor=#6c8ebf;" vertex="1" parent="1">
          <mxGeometry x="211" y="621" width="40" height="40" as="geometry" />
        </mxCell>
        <mxCell id="NsVRQRD93HS3144x8ldY-51" value="" style="endArrow=classic;html=1;rounded=0;exitX=0.5;exitY=1;exitDx=0;exitDy=0;entryX=1;entryY=0;entryDx=0;entryDy=0;" edge="1" parent="1" source="NsVRQRD93HS3144x8ldY-20" target="NsVRQRD93HS3144x8ldY-47">
          <mxGeometry width="50" height="50" relative="1" as="geometry">
            <mxPoint x="359" y="549" as="sourcePoint" />
            <mxPoint x="409" y="499" as="targetPoint" />
          </mxGeometry>
        </mxCell>
        <mxCell id="NsVRQRD93HS3144x8ldY-52" value="" style="endArrow=classic;html=1;rounded=0;exitX=0.5;exitY=1;exitDx=0;exitDy=0;entryX=0;entryY=0;entryDx=0;entryDy=0;" edge="1" parent="1" source="NsVRQRD93HS3144x8ldY-21" target="NsVRQRD93HS3144x8ldY-48">
          <mxGeometry width="50" height="50" relative="1" as="geometry">
            <mxPoint x="359" y="549" as="sourcePoint" />
            <mxPoint x="409" y="499" as="targetPoint" />
          </mxGeometry>
        </mxCell>
        <mxCell id="NsVRQRD93HS3144x8ldY-53" value="3" style="rounded=0;whiteSpace=wrap;html=1;fillColor=#dae8fc;strokeColor=#6c8ebf;" vertex="1" parent="1">
          <mxGeometry x="224" y="692" width="40" height="40" as="geometry" />
        </mxCell>
        <mxCell id="NsVRQRD93HS3144x8ldY-54" value="6" style="rounded=0;whiteSpace=wrap;html=1;fillColor=#dae8fc;strokeColor=#6c8ebf;" vertex="1" parent="1">
          <mxGeometry x="264" y="692" width="40" height="40" as="geometry" />
        </mxCell>
        <mxCell id="NsVRQRD93HS3144x8ldY-55" value="8" style="rounded=0;whiteSpace=wrap;html=1;fillColor=#dae8fc;strokeColor=#6c8ebf;" vertex="1" parent="1">
          <mxGeometry x="303" y="692" width="41" height="40" as="geometry" />
        </mxCell>
        <mxCell id="NsVRQRD93HS3144x8ldY-56" value="" style="endArrow=classic;html=1;rounded=0;exitX=0.5;exitY=1;exitDx=0;exitDy=0;entryX=0.5;entryY=0;entryDx=0;entryDy=0;" edge="1" parent="1" source="NsVRQRD93HS3144x8ldY-33" target="NsVRQRD93HS3144x8ldY-54">
          <mxGeometry width="50" height="50" relative="1" as="geometry">
            <mxPoint x="359" y="549" as="sourcePoint" />
            <mxPoint x="290" y="689" as="targetPoint" />
          </mxGeometry>
        </mxCell>
        <mxCell id="NsVRQRD93HS3144x8ldY-59" value="" style="endArrow=classic;html=1;rounded=0;exitX=0.25;exitY=1;exitDx=0;exitDy=0;entryX=0.5;entryY=0;entryDx=0;entryDy=0;" edge="1" parent="1" source="NsVRQRD93HS3144x8ldY-48" target="NsVRQRD93HS3144x8ldY-54">
          <mxGeometry width="50" height="50" relative="1" as="geometry">
            <mxPoint x="79" y="699" as="sourcePoint" />
            <mxPoint x="129" y="649" as="targetPoint" />
          </mxGeometry>
        </mxCell>
        <mxCell id="NsVRQRD93HS3144x8ldY-60" value="1" style="rounded=0;whiteSpace=wrap;html=1;fillColor=#dae8fc;strokeColor=#6c8ebf;" vertex="1" parent="1">
          <mxGeometry x="478" y="696" width="40" height="40" as="geometry" />
        </mxCell>
        <mxCell id="NsVRQRD93HS3144x8ldY-61" value="2" style="rounded=0;whiteSpace=wrap;html=1;fillColor=#dae8fc;strokeColor=#6c8ebf;" vertex="1" parent="1">
          <mxGeometry x="518" y="696" width="40" height="40" as="geometry" />
        </mxCell>
        <mxCell id="NsVRQRD93HS3144x8ldY-62" value="4" style="rounded=0;whiteSpace=wrap;html=1;fillColor=#dae8fc;strokeColor=#6c8ebf;" vertex="1" parent="1">
          <mxGeometry x="557" y="696" width="41" height="40" as="geometry" />
        </mxCell>
        <mxCell id="NsVRQRD93HS3144x8ldY-63" value="1" style="rounded=0;whiteSpace=wrap;html=1;fillColor=#dae8fc;strokeColor=#6c8ebf;" vertex="1" parent="1">
          <mxGeometry x="448" y="623" width="40" height="40" as="geometry" />
        </mxCell>
        <mxCell id="NsVRQRD93HS3144x8ldY-64" value="4" style="rounded=0;whiteSpace=wrap;html=1;fillColor=#dae8fc;strokeColor=#6c8ebf;" vertex="1" parent="1">
          <mxGeometry x="488" y="623" width="40" height="40" as="geometry" />
        </mxCell>
        <mxCell id="NsVRQRD93HS3144x8ldY-65" value="" style="endArrow=classic;html=1;rounded=0;exitX=0.5;exitY=1;exitDx=0;exitDy=0;entryX=1;entryY=0;entryDx=0;entryDy=0;" edge="1" parent="1" source="NsVRQRD93HS3144x8ldY-34" target="NsVRQRD93HS3144x8ldY-63">
          <mxGeometry width="50" height="50" relative="1" as="geometry">
            <mxPoint x="418" y="553" as="sourcePoint" />
            <mxPoint x="468" y="503" as="targetPoint" />
          </mxGeometry>
        </mxCell>
        <mxCell id="NsVRQRD93HS3144x8ldY-66" value="" style="endArrow=classic;html=1;rounded=0;exitX=0.5;exitY=1;exitDx=0;exitDy=0;entryX=1;entryY=0;entryDx=0;entryDy=0;" edge="1" parent="1" source="NsVRQRD93HS3144x8ldY-22" target="NsVRQRD93HS3144x8ldY-63">
          <mxGeometry width="50" height="50" relative="1" as="geometry">
            <mxPoint x="418" y="553" as="sourcePoint" />
            <mxPoint x="468" y="503" as="targetPoint" />
          </mxGeometry>
        </mxCell>
        <mxCell id="NsVRQRD93HS3144x8ldY-67" value="" style="endArrow=classic;html=1;rounded=0;exitX=0.5;exitY=1;exitDx=0;exitDy=0;entryX=0.75;entryY=0;entryDx=0;entryDy=0;" edge="1" parent="1" source="NsVRQRD93HS3144x8ldY-19" target="NsVRQRD93HS3144x8ldY-61">
          <mxGeometry width="50" height="50" relative="1" as="geometry">
            <mxPoint x="418" y="553" as="sourcePoint" />
            <mxPoint x="468" y="503" as="targetPoint" />
          </mxGeometry>
        </mxCell>
        <mxCell id="NsVRQRD93HS3144x8ldY-68" value="" style="endArrow=classic;html=1;rounded=0;exitX=0;exitY=1;exitDx=0;exitDy=0;entryX=0.75;entryY=0;entryDx=0;entryDy=0;" edge="1" parent="1" source="NsVRQRD93HS3144x8ldY-64" target="NsVRQRD93HS3144x8ldY-61">
          <mxGeometry width="50" height="50" relative="1" as="geometry">
            <mxPoint x="418" y="553" as="sourcePoint" />
            <mxPoint x="468" y="503" as="targetPoint" />
          </mxGeometry>
        </mxCell>
        <mxCell id="NsVRQRD93HS3144x8ldY-69" value="1" style="rounded=0;whiteSpace=wrap;html=1;fillColor=#dae8fc;strokeColor=#6c8ebf;" vertex="1" parent="1">
          <mxGeometry x="278" y="786" width="40" height="40" as="geometry" />
        </mxCell>
        <mxCell id="NsVRQRD93HS3144x8ldY-70" value="2" style="rounded=0;whiteSpace=wrap;html=1;fillColor=#dae8fc;strokeColor=#6c8ebf;" vertex="1" parent="1">
          <mxGeometry x="318" y="786" width="40" height="40" as="geometry" />
        </mxCell>
        <mxCell id="NsVRQRD93HS3144x8ldY-71" value="3" style="rounded=0;whiteSpace=wrap;html=1;fillColor=#dae8fc;strokeColor=#6c8ebf;" vertex="1" parent="1">
          <mxGeometry x="357" y="786" width="41" height="40" as="geometry" />
        </mxCell>
        <mxCell id="NsVRQRD93HS3144x8ldY-78" value="4" style="rounded=0;whiteSpace=wrap;html=1;fillColor=#dae8fc;strokeColor=#6c8ebf;" vertex="1" parent="1">
          <mxGeometry x="398" y="786" width="40" height="40" as="geometry" />
        </mxCell>
        <mxCell id="NsVRQRD93HS3144x8ldY-79" value="6" style="rounded=0;whiteSpace=wrap;html=1;fillColor=#dae8fc;strokeColor=#6c8ebf;" vertex="1" parent="1">
          <mxGeometry x="438" y="786" width="40" height="40" as="geometry" />
        </mxCell>
        <mxCell id="NsVRQRD93HS3144x8ldY-80" value="8" style="rounded=0;whiteSpace=wrap;html=1;fillColor=#dae8fc;strokeColor=#6c8ebf;" vertex="1" parent="1">
          <mxGeometry x="477" y="786" width="41" height="40" as="geometry" />
        </mxCell>
        <mxCell id="NsVRQRD93HS3144x8ldY-81" value="" style="endArrow=none;dashed=1;html=1;dashPattern=1 3;strokeWidth=2;rounded=0;" edge="1" parent="1">
          <mxGeometry width="50" height="50" relative="1" as="geometry">
            <mxPoint x="50" y="600" as="sourcePoint" />
            <mxPoint x="690" y="600" as="targetPoint" />
          </mxGeometry>
        </mxCell>
        <mxCell id="NsVRQRD93HS3144x8ldY-82" value="Merge" style="edgeLabel;html=1;align=center;verticalAlign=middle;resizable=0;points=[];" vertex="1" connectable="0" parent="NsVRQRD93HS3144x8ldY-81">
          <mxGeometry x="0.8938" y="-2" relative="1" as="geometry">
            <mxPoint as="offset" />
          </mxGeometry>
        </mxCell>
        <mxCell id="NsVRQRD93HS3144x8ldY-83" value="" style="endArrow=classic;html=1;rounded=0;exitX=0.5;exitY=1;exitDx=0;exitDy=0;entryX=0.5;entryY=0;entryDx=0;entryDy=0;" edge="1" parent="1" source="NsVRQRD93HS3144x8ldY-54" target="NsVRQRD93HS3144x8ldY-71">
          <mxGeometry width="50" height="50" relative="1" as="geometry">
            <mxPoint x="320" y="610" as="sourcePoint" />
            <mxPoint x="370" y="560" as="targetPoint" />
          </mxGeometry>
        </mxCell>
        <mxCell id="NsVRQRD93HS3144x8ldY-84" value="" style="endArrow=classic;html=1;rounded=0;exitX=0.5;exitY=1;exitDx=0;exitDy=0;entryX=0.75;entryY=0;entryDx=0;entryDy=0;" edge="1" parent="1" source="NsVRQRD93HS3144x8ldY-61" target="NsVRQRD93HS3144x8ldY-78">
          <mxGeometry width="50" height="50" relative="1" as="geometry">
            <mxPoint x="320" y="610" as="sourcePoint" />
            <mxPoint x="370" y="560" as="targetPoint" />
          </mxGeometry>
        </mxCell>
      </root>
    </mxGraphModel>
  </diagram>
</mxfile>
